# xmcd
#
# Track frame offsets:
#	150
#	13638
#	23288
#	35610
#	49838
#	62143
#	74280
#	85610
#	99040
#	113055
#	124013
#	136330
#	148078
#	165110
#
# Disc length: 2349 seconds
#
# Revision: 1
# Processed by: cddbd v1.5.2PL0 Copyright (c) Steve Scherf et al.
# Submitted via: EZCDAudioConverter 3.1.0.1
#
DISCID=a7092b0e
DTITLE=Roosevelt Sykes - Blues by Roosevelt "The Honey-Dripper" Sykes
DYEAR=1961
DGENRE=Blues
TTITLE0=Sweet Old Chicago
TTITLE1=Don't Care Blues
TTITLE2=47th Street Jive
TTITLE3=Memphis Slim Rock
TTITLE4=44 Blues
TTITLE5=Security Blues
TTITLE6=R. S. Stomp
TTITLE7=Ran the Blues Out of My Window
TTITLE8=All My Money Gone Blues
TTITLE9=Woman in Elaine, Arkansas
TTITLE10=The Mistaken Life
TTITLE11=The Sweet Root Man
TTITLE12=The Thing
TTITLE13=Please Don't Talk About Me When I'm Gone
EXTD=
EXTT0=
EXTT1=
EXTT2=
EXTT3=
EXTT4=
EXTT5=
EXTT6=
EXTT7=
EXTT8=
EXTT9=
EXTT10=
EXTT11=
EXTT12=
EXTT13=
PLAYORDER=
